<svg width="20" height="21" viewBox="0 0 20 21" fill="none" xmlns="http://www.w3.org/2000/svg">
<path d="M0 10.8C0 5.27714 4.47715 0.799988 10 0.799988C15.5228 0.799988 20 5.27714 20 10.8C20 16.3228 15.5228 20.8 10 20.8C4.47715 20.8 0 16.3228 0 10.8Z" fill="#DCFCE7"/>
<path fill-rule="evenodd" clip-rule="evenodd" d="M14.2473 6.95837L8.28066 12.7167L6.69733 11.025C6.40566 10.75 5.94733 10.7334 5.614 10.9667C5.289 11.2084 5.19733 11.6334 5.39733 11.975L7.27233 15.025C7.45566 15.3084 7.77233 15.4834 8.13066 15.4834C8.47233 15.4834 8.79733 15.3084 8.98066 15.025C9.28066 14.6334 15.0057 7.80837 15.0057 7.80837C15.7557 7.04171 14.8473 6.36671 14.2473 6.95004V6.95837Z" fill="#00B256"/>
</svg>
